<?xml version="1.0" encoding="UTF-8"?><svg xmlns="http://www.w3.org/2000/svg" xmlns:xlink="http://www.w3.org/1999/xlink" height="755.5" preserveAspectRatio="xMidYMid meet" version="1.0" viewBox="-192.2 19.5 752.7 755.5" width="752.7" zoomAndPan="magnify"><g><g id="change1_2"><path d="M-16.3,272.7c-175.9,274.9,251.6,502.3,418.4,238C560.5,259.7,110.8,19.5-16.3,272.7" fill="#FFF"/></g></g><g opacity=".6"><g id="change2_2"><path d="M-16.3,272.7c-175.9,274.9,251.6,502.3,418.4,238C560.5,259.7,110.8,19.5-16.3,272.7" fill="#FFAC0E"/></g></g><g><g id="change2_1" opacity=".5"><path d="M155,192.8c-284.9,43.1-187.2,459.4,85.4,416.3C499.2,568.2,397.2,129.9,155,192.8" fill="#FFAC0E"/></g></g><g id="change1_1"><path d="M211.4,346.7v-24.8c0-3.7,0.2-6.6,0.5-8.6c0.3-2,1.1-4,2.4-6c1.2-2,3.2-3.3,5.9-4.1 c2.7-0.8,6.4-1.1,10.9-1.1h24.8v-49.6h-39.6c-22.9,0-39.4,5.4-49.4,16.3c-10,10.9-15,26.9-15,48.1v29.8h-29.7v49.6h29.7v143.8h59.5 V396.3H251l5.2-49.6H211.4z" fill="#FFF"/></g></svg>